<svg width="76" height="24" viewBox="0 0 76 24" fill="none" xmlns="http://www.w3.org/2000/svg">
<path d="M44.3873 19.1823C43.0347 19.1823 41.865 18.8912 40.8781 18.3088C39.897 17.7206 39.1395 16.9029 38.6054 15.8559C38.0713 14.8029 37.8043 13.5823 37.8043 12.1941C37.8043 10.7941 38.0713 9.57058 38.6054 8.52353C39.1395 7.47058 39.897 6.65294 40.8781 6.07058C41.865 5.48235 43.0347 5.18823 44.3873 5.18823C45.7399 5.18823 46.9067 5.48235 47.8877 6.07058C48.8746 6.65294 49.6351 7.47058 50.1692 8.52353C50.7032 9.57058 50.9703 10.7941 50.9703 12.1941C50.9703 13.5823 50.7032 14.8029 50.1692 15.8559C49.6351 16.9029 48.8746 17.7206 47.8877 18.3088C46.9067 18.8912 45.7399 19.1823 44.3873 19.1823ZM44.4047 16.2706C45.02 16.2706 45.5338 16.0941 45.9459 15.7412C46.3581 15.3823 46.6687 14.8941 46.8777 14.2765C47.0924 13.6588 47.1998 12.9559 47.1998 12.1676C47.1998 11.3794 47.0924 10.6765 46.8777 10.0588C46.6687 9.44117 46.3581 8.95294 45.9459 8.59411C45.5338 8.23529 45.02 8.05588 44.4047 8.05588C43.7835 8.05588 43.2611 8.23529 42.8373 8.59411C42.4193 8.95294 42.103 9.44117 41.8882 10.0588C41.6792 10.6765 41.5747 11.3794 41.5747 12.1676C41.5747 12.9559 41.6792 13.6588 41.8882 14.2765C42.103 14.8941 42.4193 15.3823 42.8373 15.7412C43.2611 16.0941 43.7835 16.2706 44.4047 16.2706Z" fill="#440FCF"/>
<path d="M8.05458 5.36471V8.18824H0V5.36471H8.05458ZM1.82861 2.11765H5.53807V14.7529C5.53807 15.1 5.59032 15.3706 5.69481 15.5647C5.7993 15.7529 5.94443 15.8853 6.13019 15.9618C6.32176 16.0382 6.54235 16.0765 6.79197 16.0765C6.96613 16.0765 7.14028 16.0618 7.31443 16.0324C7.48858 15.9971 7.6221 15.9706 7.71498 15.9529L8.2984 18.75C8.11263 18.8088 7.8514 18.8765 7.51471 18.9529C7.17801 19.0353 6.76875 19.0853 6.28693 19.1029C5.39294 19.1382 4.60925 19.0176 3.93586 18.7412C3.26827 18.4647 2.74872 18.0353 2.37719 17.4529C2.00566 16.8706 1.8228 16.1353 1.82861 15.2471V2.11765Z" fill="#1D253F"/>
<path d="M16.4226 19.1824C15.0468 19.1824 13.8626 18.9 12.8699 18.3353C11.883 17.7647 11.1226 16.9588 10.5885 15.9176C10.0544 14.8706 9.78741 13.6324 9.78741 12.2029C9.78741 10.8088 10.0544 9.58529 10.5885 8.53235C11.1226 7.47941 11.8743 6.65882 12.8438 6.07059C13.8191 5.48235 14.9627 5.18824 16.2746 5.18824C17.157 5.18824 17.9784 5.33235 18.7389 5.62059C19.5051 5.90294 20.1727 6.32941 20.7416 6.9C21.3163 7.47059 21.7633 8.18824 22.0826 9.05294C22.4019 9.91177 22.5615 10.9176 22.5615 12.0706V13.1029H11.2677V10.7735H19.0698C19.0698 10.2324 18.9537 9.75294 18.7215 9.33529C18.4893 8.91765 18.1671 8.59118 17.7549 8.35588C17.3486 8.11471 16.8754 7.99412 16.3356 7.99412C15.7725 7.99412 15.2732 8.12647 14.8378 8.39118C14.4083 8.65 14.0716 9 13.8278 9.44118C13.5839 9.87647 13.4591 10.3618 13.4533 10.8971V13.1118C13.4533 13.7824 13.5752 14.3618 13.8191 14.85C14.0687 15.3382 14.4199 15.7147 14.8727 15.9794C15.3255 16.2441 15.8624 16.3765 16.4836 16.3765C16.8958 16.3765 17.2731 16.3176 17.6156 16.2C17.9581 16.0824 18.2512 15.9059 18.4951 15.6706C18.7389 15.4353 18.9246 15.1471 19.0524 14.8059L22.4832 15.0353C22.309 15.8706 21.952 16.6 21.4121 17.2235C20.8781 17.8412 20.1873 18.3235 19.3397 18.6706C18.498 19.0118 17.5256 19.1824 16.4226 19.1824Z" fill="#1D253F"/>
<path d="M28.6917 0.847059V18.9176H24.9823V0.847059H28.6917Z" fill="#1D253F"/>
<path d="M35.3727 0.847059V18.9176H31.6632V0.847059H35.3727Z" fill="#1D253F"/>
<path d="M60.5748 5.36471V8.18824H52.32V5.36471H60.5748ZM54.2095 18.9176V4.38529C54.2095 3.40294 54.3982 2.58824 54.7755 1.94118C55.1587 1.29412 55.6811 0.808823 56.3429 0.485294C57.0047 0.161765 57.7564 0 58.5982 0C59.1671 0 59.6866 0.044118 60.1568 0.132354C60.6329 0.220589 60.987 0.300001 61.2192 0.370589L60.5574 3.19412C60.4123 3.14706 60.2323 3.10294 60.0175 3.06176C59.8085 3.02059 59.5938 3 59.3732 3C58.8275 3 58.4472 3.12941 58.2325 3.38824C58.0177 3.64118 57.9103 3.99706 57.9103 4.45588V18.9176H54.2095Z" fill="#1D253F"/>
<path d="M65.1311 24C64.6609 24 64.2197 23.9618 63.8075 23.8853C63.4012 23.8147 63.0645 23.7235 62.7974 23.6118L63.6334 20.8059C64.0688 20.9412 64.4606 21.0147 64.8089 21.0265C65.163 21.0382 65.4678 20.9559 65.7232 20.7794C65.9844 20.6029 66.1963 20.3029 66.3589 19.8794L66.5766 19.3059L61.7786 5.36471H65.6797L68.4487 15.3176H68.588L71.3832 5.36471H75.3103L70.1119 20.3824C69.8623 21.1118 69.5227 21.7471 69.0931 22.2882C68.6693 22.8353 68.1323 23.2559 67.4822 23.55C66.832 23.85 66.0483 24 65.1311 24Z" fill="#1D253F"/>
</svg>
